<?xml version="1.0" encoding="UTF-8"?>
<svg width="32px" height="32px" viewBox="0 0 32 32" version="1.1" xmlns="http://www.w3.org/2000/svg" xmlns:xlink="http://www.w3.org/1999/xlink">
    <!-- Generator: Sketch 51 (57462) - http://www.bohemiancoding.com/sketch -->
    <title>Artboard 2</title>
    <desc>Created with Sketch.</desc>
    <defs>
        <path d="M24,8.47826087 L24,28.0434783 C24,29.1240354 23.1045695,30 22,30 L2,30 C0.8954305,30 0,29.1240354 0,28.0434783 L0,1.95652174 C0,0.87596462 0.8954305,0 2,0 L15.3333333,0" id="path-1"></path>
    </defs>
    <g id="Artboard-2" stroke="none" stroke-width="1" fill="white" fill-rule="evenodd">
        <g id="Group-2" transform="translate(4.000000, 1.000000)">
            <g id="Group-Copy-40">
                <g id="Rectangle-2">
                    <mask id="mask-2" fill="white">
                        <use xlink:href="#path-1"></use>
                    </mask>
                    <path stroke="#838BF9" stroke-width="0.5" d="M23.75,8.58342719 L15.2313855,0.25 L2,0.25 C1.03228681,0.25 0.25,1.01528058 0.25,1.95652174 L0.25,28.0434783 C0.25,28.9847194 1.03228681,29.75 2,29.75 L22,29.75 C22.9677132,29.75 23.75,28.9847194 23.75,28.0434783 L23.75,8.58342719 Z"></path>
                    <rect fill="#838BF9" fill-rule="nonzero" mask="url(#mask-2)" x="15" y="-5" width="14" height="14" rx="1.92"></rect>
                </g>
            </g>
            <g id="code" transform="translate(5.000000, 11.000000)" fill-rule="nonzero">
                <rect id="Rectangle-path" fill="#000000" opacity="0" x="0" y="0" width="13.9863415" height="14"></rect>
                <path d="M3.28482341,3.71875 C3.10037854,3.71875 2.93429073,3.79575 2.81518829,3.91846875 L2.81453268,3.9178125 L0.230119024,6.50453125 C0.0846046567,6.62796916 0.000490729935,6.80907466 -5.29176702e-15,7 C-5.29176702e-15,7.184625 0.0767063415,7.350875 0.199305366,7.469875 L0.198868293,7.47075 L2.82130732,10.09575 L2.82196293,10.094875 C2.94374719,10.2143807 3.10750502,10.2812988 3.27804878,10.28125 C3.64013205,10.28125 3.93365854,9.98743687 3.93365854,9.625 C3.93365854,9.447375 3.86241561,9.28659375 3.7476839,9.16846875 L3.74833951,9.1678125 L1.58613854,7.00328125 L3.74156488,4.84575 L3.74090927,4.84509375 C3.86836029,4.72196884 3.94037362,4.55229987 3.94043317,4.375 C3.94043317,4.01256313 3.64690668,3.71875 3.28482341,3.71875 Z M13.9931161,7 C13.9931161,6.8009375 13.9028605,6.62484375 13.7629971,6.50453125 L11.1785834,3.9178125 L11.1781463,3.91846875 C11.0550307,3.7909233 10.885475,3.71885094 10.7082927,3.71875 C10.3462094,3.71875 10.0526829,4.01256313 10.0526829,4.375 C10.0526829,4.559625 10.1296078,4.725875 10.2522068,4.84509375 L10.2515512,4.84575 L12.4069776,7.00328125 L10.244558,9.1678125 L10.2452137,9.16846875 C10.1260633,9.29051147 10.0593184,9.4543572 10.059239,9.625 C10.059239,9.98743687 10.3527655,10.28125 10.7148488,10.28125 C10.8923005,10.28125 11.0529249,10.2099375 11.1711532,10.094875 L11.1718088,10.09575 L13.7942478,7.47075 L13.7935922,7.469875 C13.9211583,7.34691967 13.993199,7.17726507 13.9931161,7 Z M8.74146341,1.75 C8.45736585,1.75 8.21566439,1.93090625 8.12453463,2.1835625 L4.63297561,11.358375 C4.50660855,11.6980387 4.67925105,12.0759314 5.01858342,12.2024219 C5.35791579,12.3289123 5.73543976,12.1561012 5.86180683,11.8164375 L9.35336585,2.641625 C9.43081862,2.43984962 9.40403889,2.21283678 9.28176578,2.03466824 C9.15949267,1.8564997 8.95740978,1.75002861 8.74146341,1.75 Z" id="Shape" fill="#838BF9"></path>
            </g>
        </g>
    </g>
</svg>