<?xml version="1.0" encoding="UTF-8"?>
<svg width="32px" height="32px" viewBox="0 0 32 32" version="1.1" xmlns="http://www.w3.org/2000/svg" xmlns:xlink="http://www.w3.org/1999/xlink">
    <!-- Generator: Sketch 51 (57462) - http://www.bohemiancoding.com/sketch -->
    <title>Artboard 2</title>
    <desc>Created with Sketch.</desc>
    <defs>
        <path d="M24,8.47826087 L24,28.0434783 C24,29.1240354 23.1045695,30 22,30 L2,30 C0.8954305,30 0,29.1240354 0,28.0434783 L0,1.95652174 C0,0.87596462 0.8954305,0 2,0 L15.3333333,0" id="path-1"></path>
    </defs>
    <g id="Artboard-2" stroke="none" stroke-width="1" fill="white" fill-rule="evenodd">
        <g id="Group-Copy-38" transform="translate(4.000000, 1.000000)">
            <g id="Rectangle-2">
                <mask id="mask-2" fill="white">
                    <use xlink:href="#path-1"></use>
                </mask>
                <path stroke="#59CD8F" stroke-width="0.5" d="M23.75,8.58342719 L15.2313855,0.25 L2,0.25 C1.03228681,0.25 0.25,1.01528058 0.25,1.95652174 L0.25,28.0434783 C0.25,28.9847194 1.03228681,29.75 2,29.75 L22,29.75 C22.9677132,29.75 23.75,28.9847194 23.75,28.0434783 L23.75,8.58342719 Z"></path>
                <rect fill="#59CD8F" fill-rule="nonzero" mask="url(#mask-2)" x="15" y="-5" width="14" height="14" rx="1.92"></rect>
            </g>
            <g id="image" transform="translate(5.000000, 12.000000)" fill-rule="nonzero">
                <rect id="Rectangle-path" fill="#000000" opacity="0" x="0" y="0" width="14" height="14"></rect>
                <path d="M10.0625,6.125 C10.7871094,6.125 11.375,5.53710938 11.375,4.8125 C11.375,4.08789062 10.7871094,3.5 10.0625,3.5 C9.33789062,3.5 8.75,4.08789062 8.75,4.8125 C8.75,5.53710938 9.33789062,6.125 10.0625,6.125 Z M12.359375,1.75 L1.640625,1.75 C1.2140625,1.75 0.875,2.09726562 0.875,2.52382812 L0.875,11.4761719 C0.875,11.9027344 1.2140625,12.25 1.640625,12.25 L12.359375,12.25 C12.7859375,12.25 13.125,11.9027344 13.125,11.4761719 L13.125,2.52382812 C13.125,2.09726562 12.7859375,1.75 12.359375,1.75 Z M9.54023438,7.15585938 C9.45820313,7.06015625 9.33242188,6.98632813 9.19023437,6.98632813 C9.05078125,6.98632813 8.95234375,7.05195313 8.84023438,7.1421875 L8.32890625,7.57421875 C8.22226563,7.65078125 8.1375,7.70273438 8.01445312,7.70273438 C7.896875,7.70273438 7.79023438,7.65898438 7.71367188,7.590625 C7.68632812,7.56601563 7.63710937,7.51953125 7.59609375,7.47851562 L6.125,5.88710938 C6.015625,5.76132813 5.8515625,5.68203125 5.66835938,5.68203125 C5.48515625,5.68203125 5.315625,5.77226563 5.20898438,5.8953125 L1.75,10.0679688 L1.75,2.94492188 C1.77734375,2.75898438 1.92226562,2.625 2.10820313,2.625 L11.8890625,2.625 C12.0777344,2.625 12.2308594,2.76445312 12.2417969,2.953125 L12.25,10.0734375 L9.54023438,7.15585938 Z" id="Shape" fill="#59CD8F"></path>
            </g>
        </g>
    </g>
</svg>