<?xml version="1.0" encoding="UTF-8"?>
<svg width="32px" height="32px" viewBox="0 0 32 32" version="1.1" xmlns="http://www.w3.org/2000/svg" xmlns:xlink="http://www.w3.org/1999/xlink">
    <!-- Generator: Sketch 51 (57462) - http://www.bohemiancoding.com/sketch -->
    <title>Artboard 2</title>
    <desc>Created with Sketch.</desc>
    <defs>
        <path d="M24,8.47826087 L24,28.0434783 C24,29.1240354 23.1045695,30 22,30 L2,30 C0.8954305,30 0,29.1240354 0,28.0434783 L0,1.95652174 C0,0.87596462 0.8954305,0 2,0 L15.3333333,0" id="path-1"></path>
    </defs>
    <g id="Artboard-2" stroke="none" stroke-width="1" fill="white" fill-rule="evenodd">
        <g id="Group-Copy-46" transform="translate(4.000000, 1.000000)">
            <g id="Rectangle-2">
                <mask id="mask-2" fill="white">
                    <use xlink:href="#path-1"></use>
                </mask>
                <path stroke="#EC407A" stroke-width="0.5" d="M23.75,8.58342719 L15.2313855,0.25 L2,0.25 C1.03228681,0.25 0.25,1.01528058 0.25,1.95652174 L0.25,28.0434783 C0.25,28.9847194 1.03228681,29.75 2,29.75 L22,29.75 C22.9677132,29.75 23.75,28.9847194 23.75,28.0434783 L23.75,8.58342719 Z"></path>
                <rect fill="#EC407A" fill-rule="nonzero" mask="url(#mask-2)" x="15" y="-5" width="14" height="14" rx="1.92"></rect>
            </g>
            <text id="js" font-family="HelveticaNeue-Bold, Helvetica Neue" font-size="14" font-weight="bold" fill="#EC407A">
                <tspan x="6.295" y="23">js</tspan>
            </text>
            <g id="code" transform="translate(2.545455, 2.000000)" fill-rule="nonzero">
                <rect id="Rectangle-path" fill="#000000" opacity="0" x="0" y="0" width="9.9902439" height="10"></rect>
                <path d="M2.34630244,2.65625 C2.2145561,2.65625 2.09592195,2.71125 2.01084878,2.79890625 L2.01038049,2.7984375 L0.164370732,4.64609375 C0.0604318977,4.73426369 0.000350521382,4.86362476 -5.29176702e-15,5 C-5.29176702e-15,5.131875 0.0547902439,5.250625 0.142360976,5.335625 L0.14204878,5.33625 L2.01521951,7.21125 L2.0156878,7.210625 C2.10267657,7.29598624 2.21964644,7.34378483 2.34146341,7.34375 C2.60009432,7.34375 2.8097561,7.13388348 2.8097561,6.875 C2.8097561,6.748125 2.75886829,6.63328125 2.67691707,6.54890625 L2.67738537,6.5484375 L1.1329561,5.00234375 L2.67254634,3.46125 L2.67207805,3.46078125 C2.76311449,3.37283489 2.81455259,3.25164276 2.81459512,3.125 C2.81459512,2.86611652 2.60493335,2.65625 2.34630244,2.65625 Z M9.99508293,5 C9.99508293,4.8578125 9.93061463,4.73203125 9.8307122,4.64609375 L7.98470244,2.7984375 L7.98439024,2.79890625 C7.89645052,2.70780236 7.77533926,2.6563221 7.64878049,2.65625 C7.39014958,2.65625 7.1804878,2.86611652 7.1804878,3.125 C7.1804878,3.256875 7.23543415,3.375625 7.32300488,3.46078125 L7.32253659,3.46125 L8.86212683,5.00234375 L7.31754146,6.5484375 L7.31800976,6.54890625 C7.23290237,6.63607962 7.18522741,6.75311229 7.18517073,6.875 C7.18517073,7.13388348 7.39483251,7.34375 7.65346341,7.34375 C7.78021463,7.34375 7.89494634,7.2928125 7.97939512,7.210625 L7.97986341,7.21125 L9.85303415,5.33625 L9.85256585,5.335625 C9.94368447,5.24779977 9.99514215,5.1266179 9.99508293,5 Z M6.24390244,1.25 C6.04097561,1.25 5.86833171,1.37921875 5.80323902,1.5596875 L3.30926829,8.113125 C3.21900611,8.35574196 3.34232218,8.62566529 3.58470244,8.71601562 C3.8270827,8.80636595 4.09674269,8.68292946 4.18700488,8.4403125 L6.68097561,1.886875 C6.73629901,1.74274973 6.71717064,1.5805977 6.6298327,1.45333446 C6.54249476,1.32607121 6.39814984,1.25002044 6.24390244,1.25 Z" id="Shape" fill="#EC407A"></path>
            </g>
        </g>
    </g>
</svg>