<?xml version="1.0" encoding="UTF-8"?>
<svg width="32px" height="32px" viewBox="0 0 32 32" version="1.1" xmlns="http://www.w3.org/2000/svg" xmlns:xlink="http://www.w3.org/1999/xlink">
    <!-- Generator: Sketch 51 (57462) - http://www.bohemiancoding.com/sketch -->
    <title>Artboard 2</title>
    <desc>Created with Sketch.</desc>
    <defs>
        <path d="M24,8.47826087 L24,28.0434783 C24,29.1240354 23.1045695,30 22,30 L2,30 C0.8954305,30 0,29.1240354 0,28.0434783 L0,1.95652174 C0,0.87596462 0.8954305,0 2,0 L15.3333333,0" id="path-1"></path>
    </defs>
    <g id="Artboard-2" stroke="none" stroke-width="1" fill="white" fill-rule="evenodd">
        <g id="Group-Copy-41" transform="translate(2.000000, 0.000000)">
            <g id="Rectangle-2">
                <mask id="mask-2" fill="white">
                    <use xlink:href="#path-1"></use>
                </mask>
                <path stroke="#5EA9F9" stroke-width="0.5" d="M23.75,8.58342719 L15.2313855,0.25 L2,0.25 C1.03228681,0.25 0.25,1.01528058 0.25,1.95652174 L0.25,28.0434783 C0.25,28.9847194 1.03228681,29.75 2,29.75 L22,29.75 C22.9677132,29.75 23.75,28.9847194 23.75,28.0434783 L23.75,8.58342719 Z"></path>
                <rect fill="#5EA9F9" fill-rule="nonzero" mask="url(#mask-2)" x="15" y="-5" width="14" height="14" rx="1.92"></rect>
            </g>
            <g id="Group-6" transform="translate(3.000000, 14.000000)" fill="#5EA9F9" fill-rule="nonzero">
                <rect id="Rectangle-2" x="0" y="0" width="13" height="2" rx="1"></rect>
                <rect id="Rectangle-2-Copy" x="0" y="4.5" width="16" height="2" rx="1"></rect>
                <rect id="Rectangle-2-Copy-2" x="0" y="9" width="10" height="2" rx="1"></rect>
            </g>
            <g id="Group-17" transform="translate(12.000000, 16.000000)" fill-rule="nonzero">
                <circle id="Oval-5" stroke="#FFFFFF" stroke-width="2" fill="#DD2C00" cx="8" cy="8" r="9"></circle>
                <g id="lock" transform="translate(4.000000, 3.428571)">
                    <rect id="Rectangle-path" fill="#000000" opacity="0" x="0" y="0" width="9.14285714" height="9.14285714"></rect>
                    <path d="M2.92879949,3.91836735 L5.54104438,3.91836735 L5.54104438,2.93877551 C5.54104438,2.57823129 5.41349337,2.27040816 5.15839133,2.01530613 C4.90328929,1.76020409 4.59546616,1.63265307 4.23492194,1.63265306 C3.87437771,1.63265306 3.56655458,1.76020408 3.31145255,2.01530613 C3.05635052,2.27040817 2.9287995,2.5782313 2.92879949,2.93877551 L2.92879949,3.91836735 Z M7.17369745,4.40816327 L7.17369745,7.34693878 C7.17369745,7.4829932 7.1260784,7.59863946 7.0308403,7.69387755 C6.93560221,7.78911565 6.81995595,7.8367347 6.68390153,7.8367347 L1.78594235,7.8367347 C1.64988793,7.8367347 1.53424167,7.78911565 1.43900357,7.69387755 C1.34376548,7.59863946 1.29614643,7.4829932 1.29614643,7.34693878 L1.29614643,4.40816327 C1.29614643,4.27210885 1.34376548,4.15646259 1.43900357,4.06122449 C1.53424167,3.9659864 1.64988793,3.91836735 1.78594235,3.91836735 L1.94920765,3.91836735 L1.94920765,2.93877551 C1.94920765,2.31292517 2.17369745,1.77551021 2.62267704,1.32653062 C3.07165664,0.877551027 3.6090716,0.653061229 4.23492194,0.653061223 C4.86077227,0.653061217 5.39818724,0.877551015 5.84716684,1.32653062 C6.29614644,1.77551022 6.52063624,2.31292518 6.52063622,2.93877551 L6.52063622,3.91836735 L6.68390153,3.91836735 C6.81995595,3.91836735 6.93560221,3.9659864 7.0308403,4.06122449 C7.1260784,4.15646259 7.17369745,4.27210885 7.17369745,4.40816327 Z" id="Shape" fill="#FFFFFF"></path>
                </g>
            </g>
        </g>
    </g>
</svg>