<?xml version="1.0" encoding="UTF-8"?>
<svg width="32px" height="32px" viewBox="0 0 32 32" version="1.1" xmlns="http://www.w3.org/2000/svg" xmlns:xlink="http://www.w3.org/1999/xlink">
    <!-- Generator: Sketch 51 (57462) - http://www.bohemiancoding.com/sketch -->
    <title>Artboard 2</title>
    <desc>Created with Sketch.</desc>
    <defs>
        <path d="M24,8.47826087 L24,28.0434783 C24,29.1240354 23.1045695,30 22,30 L2,30 C0.8954305,30 0,29.1240354 0,28.0434783 L0,1.95652174 C0,0.87596462 0.8954305,0 2,0 L15.3333333,0" id="path-1"></path>
    </defs>
    <g id="Artboard-2" stroke="none" stroke-width="1" fill="white" fill-rule="evenodd">
        <g id="Group-4" transform="translate(4.000000, 1.000000)">
            <g id="Group-Copy-36">
                <g id="Rectangle-2">
                    <mask id="mask-2" fill="white">
                        <use xlink:href="#path-1"></use>
                    </mask>
                    <path stroke="#B29681" stroke-width="0.5" d="M23.75,8.58342719 L15.2313855,0.25 L2,0.25 C1.03228681,0.25 0.25,1.01528058 0.25,1.95652174 L0.25,28.0434783 C0.25,28.9847194 1.03228681,29.75 2,29.75 L22,29.75 C22.9677132,29.75 23.75,28.9847194 23.75,28.0434783 L23.75,8.58342719 Z"></path>
                    <rect fill="#B29681" fill-rule="nonzero" mask="url(#mask-2)" x="15" y="-5" width="14" height="14" rx="1.92"></rect>
                </g>
            </g>
            <g id="75-movie" transform="translate(4.000000, 11.000000)" fill-rule="nonzero">
                <rect id="Rectangle-path" fill="#000000" opacity="0" x="0" y="0" width="16" height="16"></rect>
                <path d="M8,1.68 C4.50976,1.68 1.68,4.50944 1.68,8 C1.68,11.49056 4.50976,14.32 8,14.32 C11.49024,14.32 14.32,11.49056 14.32,8 C14.32,4.50944 11.49024,1.68 8,1.68 Z M4.52448,9.5104 C3.97460457,9.51564053 3.4644859,9.22445996 3.18938861,8.74831719 C2.91429132,8.27217442 2.91681803,7.68480674 3.19600156,7.21104835 C3.47518508,6.73728996 3.98779,6.4505089 4.5376,6.46048 C5.37153695,6.4756039 6.0386395,7.15784352 6.03505155,7.99190988 C6.03146361,8.82597625 5.3585162,9.50245131 4.52448,9.5104 Z M7.9792,12.9936 C7.57491096,12.9919908 7.18782494,12.8298207 6.90311982,12.5427751 C6.6184147,12.2557294 6.45941916,11.8673287 6.46112,11.46304 C6.46464,10.62112 7.15008,9.9408 7.992,9.94432 C8.83392,9.94784 9.5136,10.63392 9.5104,11.47584 C9.50652047,12.3177165 8.821078,12.9971426 7.9792,12.9936 Z M7.33344,8 C7.33344,7.63186908 7.63186908,7.33344 8,7.33344 C8.36813092,7.33344 8.66656,7.63186908 8.66656,8 C8.66656,8.36813092 8.36813092,8.66656 8,8.66656 C7.63186908,8.66656 7.33344,8.36813092 7.33344,8 Z M8.008,6.05568 C7.46324143,6.05345066 6.96105309,5.76076543 6.69060446,5.287876 C6.42015584,4.81498657 6.42253452,4.23373609 6.69684446,3.763076 C6.97115441,3.29241591 7.47572143,3.00385066 8.02048,3.00608 C8.86260379,3.00952626 9.54248626,3.69499621 9.53904,4.53712 C9.53559374,5.37924379 8.85012379,6.05912626 8.008,6.05568 Z M11.4624,9.53952 C10.9125475,9.54460807 10.4025283,9.25331213 10.1275537,8.77712661 C9.85257916,8.30094109 9.85522899,7.71360307 10.134489,7.23991803 C10.4137489,6.76623299 10.9263758,6.47955081 11.47616,6.4896 C12.3101346,6.50484374 12.9771555,7.18724056 12.9733924,8.02134594 C12.9696292,8.85545133 12.2964782,9.53180184 11.4624,9.53952 Z" id="Shape" fill="#B29681"></path>
            </g>
        </g>
    </g>
</svg>