<?xml version="1.0" encoding="UTF-8"?>
<svg width="32px" height="32px" viewBox="0 0 32 32" version="1.1" xmlns="http://www.w3.org/2000/svg" xmlns:xlink="http://www.w3.org/1999/xlink">
    <!-- Generator: Sketch 51 (57462) - http://www.bohemiancoding.com/sketch -->
    <title>Artboard 2</title>
    <desc>Created with Sketch.</desc>
    <defs>
        <path d="M24,8.47826087 L24,28.0434783 C24,29.1240354 23.1045695,30 22,30 L2,30 C0.8954305,30 0,29.1240354 0,28.0434783 L0,1.95652174 C0,0.87596462 0.8954305,0 2,0 L15.3333333,0" id="path-1"></path>
    </defs>
    <g id="Artboard-2" stroke="none" stroke-width="1" fill="white" fill-rule="evenodd">
        <g id="Group-Copy-39" transform="translate(4.000000, 1.000000)">
            <g id="Rectangle-2">
                <mask id="mask-2" fill="white">
                    <use xlink:href="#path-1"></use>
                </mask>
                <path stroke="#F56262" stroke-width="0.5" d="M23.75,8.58342719 L15.2313855,0.25 L2,0.25 C1.03228681,0.25 0.25,1.01528058 0.25,1.95652174 L0.25,28.0434783 C0.25,28.9847194 1.03228681,29.75 2,29.75 L22,29.75 C22.9677132,29.75 23.75,28.9847194 23.75,28.0434783 L23.75,8.58342719 Z"></path>
                <rect fill="#F56262" fill-rule="nonzero" mask="url(#mask-2)" x="15" y="-5" width="14" height="14" rx="1.92"></rect>
            </g>
            <g id="Music" transform="translate(5.000000, 12.000000)" fill-rule="nonzero">
                <rect id="Rectangle-path" fill="#000000" opacity="0" x="0" y="0" width="14" height="14"></rect>
                <path d="M13.2222222,0.311111117 L3.5,2.64444444 L3.5,10.2666667 C3.11111112,10.2666667 2.64444444,10.3444444 2.21666666,10.5388889 C1.0111111,11.0444444 0.35,12.0944444 0.661111117,12.8722222 C0.972222234,13.65 2.21666668,13.9222222 3.42222222,13.4166667 C4.47222222,12.9888889 5.17222222,12.0944444 5.05555556,11.3555556 L5.05555556,3.85 L11.6666667,2.29444444 L11.6666667,8.32222222 C11.2777778,8.32222222 10.8111111,8.4 10.3833333,8.59444444 C9.17777778,9.1 8.51666668,10.15 8.82777778,10.9277778 C9.13888888,11.7055556 10.3833333,11.9777778 11.5888889,11.4722222 C12.6388889,11.0444444 13.3388889,10.15 13.2222222,9.41111112 L13.2222222,0.311111117 Z" id="Shape" fill="#F87670"></path>
            </g>
        </g>
    </g>
</svg>