<?xml version="1.0" encoding="UTF-8"?>
<svg width="32px" height="32px" viewBox="0 0 32 32" version="1.1" xmlns="http://www.w3.org/2000/svg" xmlns:xlink="http://www.w3.org/1999/xlink">
    <!-- Generator: Sketch 51 (57462) - http://www.bohemiancoding.com/sketch -->
    <title>Artboard 2</title>
    <desc>Created with Sketch.</desc>
    <defs>
        <path d="M24,8.47826087 L24,28.0434783 C24,29.1240354 23.1045695,30 22,30 L2,30 C0.8954305,30 0,29.1240354 0,28.0434783 L0,1.95652174 C0,0.87596462 0.8954305,0 2,0 L15.3333333,0" id="path-1"></path>
    </defs>
    <g id="Artboard-2" stroke="none" stroke-width="1" fill="white" fill-rule="evenodd">
        <g id="Group-Copy-35" transform="translate(4.000000, 1.000000)">
            <g id="Rectangle-2">
                <mask id="mask-2" fill="white">
                    <use xlink:href="#path-1"></use>
                </mask>
                <path stroke="#F56262" stroke-width="0.5" d="M23.75,8.58342719 L15.2313855,0.25 L2,0.25 C1.03228681,0.25 0.25,1.01528058 0.25,1.95652174 L0.25,28.0434783 C0.25,28.9847194 1.03228681,29.75 2,29.75 L22,29.75 C22.9677132,29.75 23.75,28.9847194 23.75,28.0434783 L23.75,8.58342719 Z"></path>
                <rect fill="#F56262" fill-rule="nonzero" mask="url(#mask-2)" x="15" y="-5" width="14" height="14" rx="1.92"></rect>
            </g>
            <g id="pdf" transform="translate(5.000000, 11.000000)" fill-rule="nonzero">
                <rect id="Rectangle-path" fill="#000000" opacity="0" x="0" y="0" width="13.9863415" height="14"></rect>
                <path d="M12.043794,10.4611111 C10.9948184,10.3833333 9.98469376,9.99444446 9.16882385,9.29444444 C7.57593496,9.64444444 6.06074796,10.15 4.54556098,10.7722222 C3.34118157,12.9111111 2.21450406,14 1.24323035,14 C1.04897561,14 0.815869914,13.9611111 0.660466131,13.8444444 C0.233105696,13.65 0,13.2222222 0,12.7944444 C0,12.4444444 0.0777018985,11.4722222 3.768542,9.87777778 C4.62326287,8.32222222 5.28372899,6.72777778 5.82764228,5.05555556 C5.3614309,4.12222222 4.35130624,1.82777778 5.05062331,0.661111117 C5.28372899,0.233333338 5.74994038,0 6.25500272,0.0388888828 C6.6435122,0.0388888828 7.03202169,0.233333324 7.26512737,0.544444441 C7.7701897,1.24444444 7.73133875,2.72222222 7.07087263,4.9 C7.6924878,6.06666666 8.50835772,7.11666666 9.47963143,8.01111112 C10.2955013,7.85555556 11.1113713,7.7388889 11.9272412,7.73888888 C13.7532358,7.77777777 14.0251924,8.63333332 13.9863415,9.13888888 C13.9863415,10.4611111 12.7042602,10.4611111 12.043794,10.4611111 Z M1.16552845,12.8722222 L1.28208131,12.8333333 C1.82599458,12.6388889 2.25335502,12.25 2.5641626,11.7444444 C1.98139836,11.9777778 1.51518699,12.3666667 1.16552845,12.8722222 Z M6.3327046,1.20555556 L6.21615176,1.20555556 C6.17730082,1.20555556 6.09959892,1.20555556 6.06074796,1.24444444 C5.90534417,1.90555556 6.02189702,2.60555556 6.29385366,3.22777778 C6.52695935,2.56666666 6.52695935,1.86666666 6.3327046,1.20555556 Z M6.60466125,6.84444444 L6.5658103,6.92222222 L6.52695935,6.88333334 C6.17730082,7.77777778 5.78879134,8.67222222 5.36143089,9.52777778 L5.43913279,9.48888888 L5.43913279,9.56666666 C6.29385366,9.25555554 7.22627641,8.98333332 8.08099728,8.78888888 L8.04214634,8.75 L8.15869918,8.75 C7.57593495,8.16666666 7.03202167,7.50555556 6.60466125,6.84444444 Z M11.8883902,8.90555556 C11.5387317,8.90555556 11.2279241,8.90555556 10.8782656,8.98333334 C11.2667751,9.17777778 11.6552845,9.25555556 12.043794,9.29444444 C12.3157507,9.33333332 12.5877073,9.29444444 12.820813,9.21666666 C12.820813,9.1 12.6654092,8.90555554 11.8883902,8.90555556 Z" id="Shape" fill="#F56262"></path>
            </g>
        </g>
    </g>
</svg>