<?xml version="1.0" encoding="UTF-8"?>
<svg width="32px" height="32px" viewBox="0 0 32 32" version="1.1" xmlns="http://www.w3.org/2000/svg" xmlns:xlink="http://www.w3.org/1999/xlink">
    <!-- Generator: Sketch 51 (57462) - http://www.bohemiancoding.com/sketch -->
    <title>Artboard 2</title>
    <desc>Created with Sketch.</desc>
    <defs>
        <path d="M24,8.47826087 L24,28.0434783 C24,29.1240354 23.1045695,30 22,30 L2,30 C0.8954305,30 0,29.1240354 0,28.0434783 L0,1.95652174 C0,0.87596462 0.8954305,0 2,0 L15.3333333,0" id="path-1"></path>
    </defs>
    <g id="Artboard-2" stroke="none" stroke-width="1" fill="white" fill-rule="evenodd">
        <g id="Group-Copy-32" transform="translate(4.000000, 1.000000)">
            <g id="Rectangle-2">
                <mask id="mask-2" fill="white">
                    <use xlink:href="#path-1"></use>
                </mask>
                <path stroke="#4A72AD" stroke-width="0.5" d="M23.75,8.58342719 L15.2313855,0.25 L2,0.25 C1.03228681,0.25 0.25,1.01528058 0.25,1.95652174 L0.25,28.0434783 C0.25,28.9847194 1.03228681,29.75 2,29.75 L22,29.75 C22.9677132,29.75 23.75,28.9847194 23.75,28.0434783 L23.75,8.58342719 Z"></path>
                <rect fill="#4A72AD" fill-rule="nonzero" mask="url(#mask-2)" x="15" y="-5" width="14" height="14" rx="1.92"></rect>
            </g>
            <text id="W" font-family="HelveticaNeue-Bold, Helvetica Neue" font-size="14" font-weight="bold" fill="#4A72AD">
                <tspan x="5.392" y="24">W</tspan>
            </text>
        </g>
    </g>
</svg>