<?xml version="1.0" encoding="UTF-8"?>
<svg width="32px" height="32px" viewBox="0 0 32 32" version="1.1" xmlns="http://www.w3.org/2000/svg" xmlns:xlink="http://www.w3.org/1999/xlink">
    <!-- Generator: Sketch 51 (57462) - http://www.bohemiancoding.com/sketch -->
    <title>Artboard 2</title>
    <desc>Created with Sketch.</desc>
    <defs>
        <path d="M24,8.47826087 L24,28.0434783 C24,29.1240354 23.1045695,30 22,30 L2,30 C0.8954305,30 0,29.1240354 0,28.0434783 L0,1.95652174 C0,0.87596462 0.8954305,0 2,0 L15.3333333,0" id="path-1"></path>
    </defs>
    <g id="Artboard-2" stroke="none" stroke-width="1" fill="white" fill-rule="evenodd">
        <g id="Group-Copy-42" transform="translate(-4.000000, -4.000000)">
            <g id="Rectangle-2" transform="translate(8.000000, 5.000000)">
                <mask id="mask-2" fill="white">
                    <use xlink:href="#path-1"></use>
                </mask>
                <path stroke="#FFA726" stroke-width="0.5" d="M23.75,8.58342719 L15.2313855,0.25 L2,0.25 C1.03228681,0.25 0.25,1.01528058 0.25,1.95652174 L0.25,28.0434783 C0.25,28.9847194 1.03228681,29.75 2,29.75 L22,29.75 C22.9677132,29.75 23.75,28.9847194 23.75,28.0434783 L23.75,8.58342719 Z"></path>
                <rect fill="#FFA726" fill-rule="nonzero" mask="url(#mask-2)" x="15" y="-5" width="14" height="14" rx="1.92"></rect>
            </g>
            <g id="zip" fill-rule="nonzero">
                <rect id="Rectangle-path" fill="#000000" opacity="0" x="0" y="0" width="32" height="32"></rect>
                <path d="M17,24.938 L13,24.938 L13,17.938 L17,17.938 L17,24.938 Z M16,21.938 L14,21.938 L14,23.938 L16,23.938 L16,21.938 Z M17,17 L15,17 L15,15 L17,15 L17,17 Z M13,15 L13,13 L15,13 L15,15 L13,15 Z M13,9 L15,9 L15,11 L13,11 L13,9 Z M13,5 L15,5 L15,7 L13,7 L13,5 Z M17,7 L17,9 L15,9 L15,7 L17,7 Z M17,11 L17,13 L15,13 L15,11 L17,11 Z" id="Shape" fill="#FFA726"></path>
            </g>
        </g>
    </g>
</svg>