<?xml version="1.0" encoding="UTF-8"?>
<svg width="32px" height="32px" viewBox="0 0 32 32" version="1.1" xmlns="http://www.w3.org/2000/svg" xmlns:xlink="http://www.w3.org/1999/xlink">
    <!-- Generator: Sketch 51 (57462) - http://www.bohemiancoding.com/sketch -->
    <title>Artboard 2</title>
    <desc>Created with Sketch.</desc>
    <defs></defs>
    <g id="Artboard-2" stroke="none" stroke-width="1" fill="white" fill-rule="evenodd">
        <path d="M12.8,4 L3.2,4 C1.44,4 0,5.44 0,7.2 L0,26.4 C0,28.16 1.44,29.6 3.2,29.6 L28.8,29.6 C30.56,29.6 32,28.16 32,26.4 L32,10.4 C32,8.64 30.56,7.2 28.8,7.2 L16,7.2 L12.8,4 Z" id="Shape-Copy-6" fill="#92CEFF" fill-rule="nonzero"></path>
        <g id="闪电" transform="translate(7.000000, 10.000000)" fill-rule="nonzero">
            <rect id="Rectangle-path" fill="#000000" opacity="0" x="0" y="0" width="17.8602623" height="17.8602623"></rect>
            <polygon id="Shape" fill="#5EABEB" points="9.64946592 7.43139227 12.9228678 7.43139227 5.10305682 16.8272673 7.70966047 10.2111576 4.8 10.2111576 7.70966047 2.4 13.3472141 2.4"></polygon>
        </g>
    </g>
</svg>