<?xml version="1.0" encoding="UTF-8"?>
<svg width="32px" height="32px" viewBox="0 0 32 32" version="1.1" xmlns="http://www.w3.org/2000/svg" xmlns:xlink="http://www.w3.org/1999/xlink">
    <!-- Generator: Sketch 51 (57462) - http://www.bohemiancoding.com/sketch -->
    <title>Artboard 2</title>
    <desc>Created with Sketch.</desc>
    <defs></defs>
    <g id="Artboard-2" stroke="none" stroke-width="1" fill="white" fill-rule="evenodd">
        <path d="M12.8,4 L3.2,4 C1.44,4 0,5.44 0,7.2 L0,26.4 C0,28.16 1.44,29.6 3.2,29.6 L28.8,29.6 C30.56,29.6 32,28.16 32,26.4 L32,10.4 C32,8.64 30.56,7.2 28.8,7.2 L16,7.2 L12.8,4 Z" id="Shape-Copy-6" fill="#92CEFF" fill-rule="nonzero"></path>
        <g id="flaticon1533283033-svg" transform="translate(9.000000, 10.000000)" fill="#5EABEB" fill-rule="nonzero">
            <path d="M0.0151029445,11.088746 L1.25828945e-06,4.72602627 C-0.000733170217,4.41294812 0.320166186,4.20130126 0.608980196,4.32435016 L6.42028346,6.80044923 C6.58087085,6.86887074 6.68518264,7.02598171 6.68559576,7.20004364 L6.70069745,13.5627634 C6.70143187,13.8758644 6.38053252,14.0875113 6.09171851,13.9644624 L0.280415243,11.4883633 C0.119827859,11.4199418 0.0154931096,11.2628308 0.0151029445,11.088746 Z M13.3299705,5.0255162 L7.96719646,7.34045528 L7.9811506,13.2288225 L13.3439476,10.9138834 L13.3299705,5.0255162 Z M13.5469711,4.25789598 C13.7774669,4.25732408 13.9843233,4.44213764 13.9848971,4.69303937 L13.9999988,11.0557591 C14.0004119,11.229821 13.8968345,11.3874582 13.7365684,11.4566117 L7.93710784,13.9600931 C7.87989127,13.9847761 7.82127469,13.9963055 7.76419583,13.9964656 C7.53367708,13.9969917 7.32679775,13.8122011 7.32622398,13.5613222 L7.31112229,7.19857959 C7.31068622,7.02451766 7.41428654,6.86688055 7.57457557,6.79772701 L13.3740362,4.29426849 C13.4312527,4.26953976 13.4898464,4.25803323 13.5469711,4.25789598 Z M6.95758677,0.674059347 L1.39463509,3.1497924 L6.96926877,5.59921829 L12.5322434,3.12350811 L6.95758677,0.674059347 Z M6.95600316,1.13329252e-06 C7.0164099,-0.000136121485 7.07686255,0.0121939327 7.13336764,0.0370141717 L13.2475538,2.72352481 C13.5943877,2.87594625 13.5955582,3.36606018 13.2494358,3.52008292 L7.14805621,6.23541706 C7.09168882,6.26051181 7.03128208,6.27311638 6.97085238,6.27327651 C6.91044564,6.27341376 6.84999299,6.26108371 6.7934879,6.23626347 L0.679324676,3.54975283 C0.332467863,3.39735427 0.331320318,2.90721746 0.677419752,2.75319472 L6.77877638,0.0378605762 C6.83516672,0.0127658276 6.89555051,0.00013838807 6.95600316,1.13329252e-06 Z" id="Shape"></path>
        </g>
    </g>
</svg>