<?xml version="1.0" encoding="UTF-8"?>
<svg width="32px" height="32px" viewBox="0 0 32 32" version="1.1" xmlns="http://www.w3.org/2000/svg" xmlns:xlink="http://www.w3.org/1999/xlink">
    <!-- Generator: Sketch 51 (57462) - http://www.bohemiancoding.com/sketch -->
    <title>Artboard 2</title>
    <desc>Created with Sketch.</desc>
    <defs></defs>
    <g id="Artboard-2" stroke="none" stroke-width="1" fill="white" fill-rule="evenodd">
        <path d="M12.8,4 L3.2,4 C1.44,4 0,5.44 0,7.2 L0,26.4 C0,28.16 1.44,29.6 3.2,29.6 L28.8,29.6 C30.56,29.6 32,28.16 32,26.4 L32,10.4 C32,8.64 30.56,7.2 28.8,7.2 L16,7.2 L12.8,4 Z" id="Shape-Copy-6" fill="#92CEFF" fill-rule="nonzero"></path>
        <g id="people" transform="translate(8.000000, 9.000000)" fill-rule="nonzero">
            <rect id="Rectangle-path" fill="#000000" opacity="0" x="0" y="0" width="16" height="16"></rect>
            <path d="M10.6666667,7.33333333 C11.8,7.33333333 12.6666667,6.46666666 12.6666667,5.33333333 C12.6666667,4.2 11.8,3.33333333 10.6666667,3.33333333 C9.53333334,3.33333333 8.66666667,4.2 8.66666667,5.33333333 C8.66666667,6.46666667 9.53333333,7.33333333 10.6666667,7.33333333 Z M5.33333333,7.33333333 C6.46666666,7.33333333 7.33333333,6.46666666 7.33333333,5.33333333 C7.33333333,4.2 6.46666666,3.33333333 5.33333333,3.33333333 C4.2,3.33333333 3.33333333,4.2 3.33333333,5.33333333 C3.33333333,6.46666667 4.2,7.33333333 5.33333333,7.33333333 Z M5.33333333,8.66666667 C3.8,8.66666667 0.666666656,9.46666667 0.666666656,11 L0.666666656,12.6666667 L10,12.6666667 L10,11 C10,9.46666667 6.86666667,8.66666667 5.33333333,8.66666667 Z M10.6666667,8.66666667 C10.4666667,8.66666667 10.2666667,8.66666667 10,8.73333334 C10.8,9.26666667 11.3333333,10.0666667 11.3333333,11 L11.3333333,12.6666667 L15.3333333,12.6666667 L15.3333333,11 C15.3333333,9.46666667 12.2,8.66666667 10.6666667,8.66666667 Z" id="Shape" fill="#5EABEB"></path>
        </g>
    </g>
</svg>