<?xml version="1.0" encoding="UTF-8"?>
<svg width="32px" height="32px" viewBox="0 0 32 32" version="1.1" xmlns="http://www.w3.org/2000/svg" xmlns:xlink="http://www.w3.org/1999/xlink">
    <!-- Generator: Sketch 51 (57462) - http://www.bohemiancoding.com/sketch -->
    <title>Artboard 2</title>
    <desc>Created with Sketch.</desc>
    <defs></defs>
    <g id="Artboard-2" stroke="none" stroke-width="1" fill="white" fill-rule="evenodd">
        <path d="M12.8,4 L3.2,4 C1.44,4 0,5.44 0,7.2 L0,26.4 C0,28.16 1.44,29.6 3.2,29.6 L28.8,29.6 C30.56,29.6 32,28.16 32,26.4 L32,10.4 C32,8.64 30.56,7.2 28.8,7.2 L16,7.2 L12.8,4 Z" id="Shape-Copy-6" fill="#92CEFF" fill-rule="nonzero"></path>
        <g id="download" transform="translate(8.000000, 10.000000)" fill-rule="nonzero">
            <rect id="Rectangle-path" fill="#000000" opacity="0" x="0" y="0" width="16" height="16"></rect>
            <path d="M13.3307178,14.3854847 L3.71677203,14.3854847 C2.76863088,14.3854847 2,13.6168538 2,12.6687126 L2,10.9519406 C2,10.5726777 2.30743956,10.2651902 2.68670242,10.2651902 C3.06596528,10.2651902 3.37340484,10.5726617 3.37340484,10.9519406 L3.37340484,12.3253294 C3.37340484,12.7045923 3.68084441,13.0120798 4.06010727,13.0120798 L12.9873346,13.0120798 C13.3665975,13.0120798 13.674037,12.7046083 13.674037,12.3253294 L13.674037,10.9519406 C13.674037,10.5726777 13.9815086,10.2651902 14.3607395,10.2651902 C14.7400023,10.2651902 15.0474419,10.5726617 15.0474419,10.9519406 L15.0474419,12.6687126 C15.0474898,13.6168538 14.2788589,14.3854847 13.3307178,14.3854847 Z M11.4083092,8.69603009 C11.140107,8.96418428 10.7053298,8.96418428 10.4371276,8.69603009 C10.1689734,8.42782794 10.1689734,7.99305072 10.4371276,7.72488053 L12.8425048,5.31950339 C13.1107069,5.05130123 13.5454842,5.05130123 13.8136863,5.31950339 C14.0818405,5.58765758 14.0818405,6.0224508 13.8136863,6.29065295 L11.4083092,8.69603009 Z M9.00310789,11.0995045 C8.7349537,11.3676587 8.30016048,11.3676587 8.03195833,11.0995045 L3.22310673,6.29065294 C2.95495255,6.02245078 2.95495255,5.58767356 3.22310673,5.31950338 C3.49130889,5.05130122 3.92608611,5.05130122 4.19428827,5.31950338 L7.83167812,8.95690922 L7.83167812,1.68667044 C7.83167812,1.30740758 8.13914966,1 8.51839653,1 C8.89765939,1 9.20509895,1.30740758 9.20509895,1.68667044 L9.20509894,10.2705786 C9.20509894,10.3374612 9.19253145,10.4008423 9.17467156,10.4620008 C9.22570897,10.6847298 9.17660625,10.9259742 9.00310789,11.0995045 Z" id="Shape" fill="#5EABEB"></path>
        </g>
    </g>
</svg>