<?xml version="1.0" encoding="UTF-8"?>
<svg width="32px" height="32px" viewBox="0 0 32 32" version="1.1" xmlns="http://www.w3.org/2000/svg" xmlns:xlink="http://www.w3.org/1999/xlink">
    <!-- Generator: Sketch 51 (57462) - http://www.bohemiancoding.com/sketch -->
    <title>Artboard 2</title>
    <desc>Created with Sketch.</desc>
    <defs></defs>
    <g id="Artboard-2" stroke="none" stroke-width="1" fill="white" fill-rule="evenodd">
        <path d="M12.8,4 L3.2,4 C1.44,4 0,5.44 0,7.2 L0,26.4 C0,28.16 1.44,29.6 3.2,29.6 L28.8,29.6 C30.56,29.6 32,28.16 32,26.4 L32,10.4 C32,8.64 30.56,7.2 28.8,7.2 L16,7.2 L12.8,4 Z" id="Shape-Copy-6" fill="#92CEFF" fill-rule="nonzero"></path>
        <g id="lock" transform="translate(8.000000, 11.000000)" fill-rule="nonzero">
            <rect id="Rectangle-path" fill="#000000" opacity="0" x="0" y="0" width="16" height="16"></rect>
            <path d="M5.71428572,6.85714286 L10.2857143,6.85714286 L10.2857143,5.14285714 C10.2857143,4.51190476 10.0625,3.97321428 9.61607144,3.52678572 C9.16964286,3.08035716 8.63095239,2.85714287 8.00000002,2.85714286 C7.36904764,2.85714285 6.83035717,3.08035714 6.38392859,3.52678572 C5.93750002,3.9732143 5.71428573,4.51190478 5.71428573,5.14285714 L5.71428572,6.85714286 Z M13.1428571,7.71428572 L13.1428571,12.8571429 C13.1428571,13.0952381 13.0595238,13.2976191 12.8928571,13.4642857 C12.7261905,13.6309524 12.5238095,13.7142857 12.2857143,13.7142857 L3.7142857,13.7142857 C3.47619046,13.7142857 3.27380951,13.6309524 3.10714284,13.4642857 C2.94047618,13.2976191 2.85714284,13.0952381 2.85714284,12.8571429 L2.85714284,7.71428572 C2.85714284,7.47619048 2.94047618,7.27380953 3.10714284,7.10714286 C3.27380951,6.94047619 3.47619046,6.85714286 3.7142857,6.85714286 L3.99999998,6.85714286 L3.99999998,5.14285714 C3.99999998,4.04761905 4.39285713,3.10714285 5.17857141,2.32142856 C5.96428569,1.53571427 6.90476188,1.14285713 7.99999998,1.14285714 C9.09523809,1.14285715 10.0357143,1.53571429 10.8214286,2.32142856 C11.6071428,3.10714283 12,4.04761903 12,5.14285714 L12,6.85714286 L12.2857143,6.85714286 C12.5238095,6.85714286 12.7261905,6.94047619 12.8928571,7.10714286 C13.0595238,7.27380953 13.1428571,7.47619048 13.1428571,7.71428572 Z" id="Shape" fill="#5EABEB"></path>
        </g>
    </g>
</svg>