<?xml version="1.0" encoding="UTF-8"?>
<svg width="32px" height="32px" viewBox="0 0 32 32" version="1.1" xmlns="http://www.w3.org/2000/svg" xmlns:xlink="http://www.w3.org/1999/xlink">
    <!-- Generator: Sketch 51 (57462) - http://www.bohemiancoding.com/sketch -->
    <title>Artboard 2</title>
    <desc>Created with Sketch.</desc>
    <defs></defs>
    <g id="Artboard-2" stroke="none" stroke-width="1" fill="white" fill-rule="evenodd">
        <path d="M12.8,4 L3.2,4 C1.44,4 0,5.44 0,7.2 L0,26.4 C0,28.16 1.44,29.6 3.2,29.6 L28.8,29.6 C30.56,29.6 32,28.16 32,26.4 L32,10.4 C32,8.64 30.56,7.2 28.8,7.2 L16,7.2 L12.8,4 Z" id="Shape-Copy-6" fill="#92CEFF" fill-rule="nonzero"></path>
        <g id="分享" transform="translate(8.000000, 10.000000)" fill-rule="nonzero">
            <rect id="Rectangle-path" fill="#000000" opacity="0" x="0" y="0" width="16" height="16"></rect>
            <path d="M12.8292338,10.7235415 C12.1458731,10.7235415 11.5400439,11.0504718 11.1555685,11.5553295 L6.73328684,8.92202688 C6.7834928,8.72830222 6.81297681,8.52648705 6.81297681,8.31709302 C6.81297681,8.25630223 6.80824402,8.19699844 6.80402289,8.13748678 L11.2284152,5.4716622 C11.6145693,5.92377167 12.1879886,6.21141666 12.8292338,6.21141666 C13.9922693,6.21141666 14.9350381,5.26863186 14.9350381,4.10567634 C14.9350381,2.94278478 13.9922533,2 12.8292338,2 C11.6663582,2 10.7236214,2.94272083 10.7236214,4.10567634 C10.7236214,4.33641591 10.7618355,4.55749802 10.830461,4.76540505 L6.4436592,7.04010283 C6.01764405,6.36232236 5.26567388,5.91056466 4.40652838,5.91056466 C3.07757341,5.91056466 2,6.98805811 2,8.31709303 C2,9.64612795 3.07755742,10.7235415 4.40652838,10.7235415 C5.11886141,10.7235415 5.7569408,10.4122005 6.19753808,9.92045395 L10.7939897,12.2977701 C10.7497796,12.4676549 10.7238292,12.6451506 10.7238292,12.8292178 C10.7238292,13.9922533 11.666678,14.9349581 12.8295695,14.9349581 C13.9925251,14.9349581 14.9352459,13.9922533 14.9352459,12.8292178 C14.9352619,11.6662623 13.9922692,10.7235415 12.8292338,10.7235415 Z" id="Shape" fill="#5EABEB"></path>
        </g>
    </g>
</svg>