<?xml version="1.0" encoding="UTF-8"?>
<svg width="32px" height="32px" viewBox="0 0 32 32" version="1.1" xmlns="http://www.w3.org/2000/svg" xmlns:xlink="http://www.w3.org/1999/xlink">
    <!-- Generator: Sketch 51 (57462) - http://www.bohemiancoding.com/sketch -->
    <title>Artboard 2</title>
    <desc>Created with Sketch.</desc>
    <defs></defs>
    <g id="Artboard-2" stroke="none" stroke-width="1" fill="white" fill-rule="evenodd">
        <path d="M12.8,4 L3.2,4 C1.44,4 0,5.44 0,7.2 L0,26.4 C0,28.16 1.44,29.6 3.2,29.6 L28.8,29.6 C30.56,29.6 32,28.16 32,26.4 L32,10.4 C32,8.64 30.56,7.2 28.8,7.2 L16,7.2 L12.8,4 Z" id="Shape-Copy-6" fill="#92CEFF" fill-rule="nonzero"></path>
        <g id="sync-green" transform="translate(8.000000, 10.000000)" fill-rule="nonzero">
            <rect id="Rectangle-path" fill="#000000" opacity="0" x="0" y="0" width="16" height="16"></rect>
            <path d="M2.66666667,8 C2.66666667,9.46666667 3.26666667,10.8 4.26666667,11.7333333 L2.66666667,13.3333333 L6.66666667,13.3333333 L6.66666667,9.33333333 L5.2,10.8 C4.46666667,10.1333333 4,9.13333333 4,8 C4,6.26666667 5.13333333,4.8 6.66666667,4.2 L6.66666667,2.86666667 C4.4,3.46666667 2.66666667,5.53333333 2.66666667,8 Z M13.3333333,2.66666667 L9.33333333,2.66666667 L9.33333333,6.66666667 L10.8,5.2 C11.5333333,5.86666667 12,6.86666667 12,8 C12,9.73333333 10.8666667,11.2 9.33333333,11.8 L9.33333333,13.2 C11.6,12.6 13.3333333,10.5333333 13.3333333,8.06666667 C13.3333333,6.6 12.7333333,5.26666667 11.7333333,4.33333334 L13.3333333,2.66666667 Z" id="Shape" fill="#5EABEB"></path>
        </g>
    </g>
</svg>