<?xml version="1.0" encoding="UTF-8"?>
<svg width="32px" height="32px" viewBox="0 0 32 32" version="1.1" xmlns="http://www.w3.org/2000/svg" xmlns:xlink="http://www.w3.org/1999/xlink">
    <!-- Generator: Sketch 51 (57462) - http://www.bohemiancoding.com/sketch -->
    <title>Artboard 2</title>
    <desc>Created with Sketch.</desc>
    <defs></defs>
    <g id="Artboard-2" stroke="none" stroke-width="1" fill="white" fill-rule="evenodd">
        <path d="M12.8,4 L3.2,4 C1.44,4 0,5.44 0,7.2 L0,26.4 C0,28.16 1.44,29.6 3.2,29.6 L28.8,29.6 C30.56,29.6 32,28.16 32,26.4 L32,10.4 C32,8.64 30.56,7.2 28.8,7.2 L16,7.2 L12.8,4 Z" id="Shape-Copy-6" fill="#92CEFF" fill-rule="nonzero"></path>
        <g id="upload" transform="translate(8.000000, 10.000000)" fill-rule="nonzero">
            <rect id="Rectangle-path" fill="#000000" opacity="0" x="0" y="0" width="16" height="16"></rect>
            <path d="M12.6666667,12.6666667 L12.6666667,11.3333333 C12.666723,10.9651834 12.9651834,10.6667687 13.3333333,10.6667687 C13.7014833,10.6667687 13.9999436,10.9651834 14,11.3333333 L14,13.3333333 C14,13.7015232 13.7015232,14 13.3333333,14 L2.66666667,14 C2.29847684,14 2,13.7015232 2,13.3333333 L2,11.3333333 C2.00005636,10.9651834 2.29851669,10.6667687 2.66666666,10.6667687 C3.03481664,10.6667687 3.33327697,10.9651834 3.33333333,11.3333333 L3.33333333,12.6666667 L12.6666667,12.6666667 Z M7.33333333,4.276 L4.47133333,7.138 C4.30395038,7.31130456 4.05608135,7.3808087 3.82299495,7.31979843 C3.58990856,7.25878815 3.4078785,7.07675809 3.34686823,6.8436717 C3.28585797,6.6105853 3.35536211,6.36271627 3.52866667,6.19533333 L7.52866667,2.19533333 C7.94866667,1.77533333 8.66666667,2.07266667 8.66666667,2.66666667 L8.66666667,10.6666667 C8.66666667,11.0348565 8.36818984,11.3333333 8,11.3333333 C7.63181016,11.3333333 7.33333333,11.0348565 7.33333333,10.6666667 L7.33333333,4.276 Z M9.82133333,5.09333333 C9.6619964,4.91120128 9.61386685,4.65702773 9.69558453,4.4292503 C9.77730221,4.20147286 9.97603356,4.0358634 10.2148129,3.99655997 C10.4535923,3.95725655 10.6949199,4.05043167 10.8453333,4.24 L12.512,6.24 C12.6713369,6.42213205 12.7194665,6.67630559 12.6377488,6.90408303 C12.5560311,7.13186047 12.3572998,7.29746993 12.1185204,7.33677335 C11.8797411,7.37607678 11.6384134,7.28290166 11.488,7.09333333 L9.82133333,5.09333333 Z" id="Shape" fill="#5EABEB"></path>
        </g>
    </g>
</svg>